<?xml version="1.0" encoding="UTF-8"?>
<svg xmlns="http://www.w3.org/2000/svg" width="600" height="600" viewBox="10 10 480 480">
 <circle cx="242.6272" cy="256.7559" r="5"/>
 <circle cx="251.2326" cy="235.9117" r="5"/>
 <circle cx="260.5441" cy="263.7413" r="5"/>
 <circle cx="230.3038" cy="246.527"  r="5"/>
 <circle cx="268.8588" cy="237.9856" r="5"/>
 <circle cx="243.6603" cy="273.6603" r="5"/>
 <circle cx="237.7833" cy="226.5319" r="5"/>
 <circle cx="276.5785" cy="259.6738" r="5"/>
 <circle cx="222.2836" cy="261.4805" r="5"/>
 <circle cx="263.3644" cy="221.34"   r="5"/>
 <circle cx="259.9733" cy="281.6312" r="5"/>
 <circle cx="220"      cy="232.6795" r="5"/>
 <circle cx="285.2009" cy="242.1962" r="5"/>
 <circle cx="228.5387" cy="280.6499" r="5"/>
 <circle cx="244.9447" cy="211.6015" r="5"/>
 <circle cx="280.6418" cy="275.7115" r="5"/>
 <circle cx="208.8082" cy="251.7985" r="5"/>
 <circle cx="280"      cy="220"      r="5"/>
 <circle cx="248.0987" cy="293.5475" r="5"/>
 <circle cx="221.2537" cy="215.7415" r="5"/>
 <circle cx="295.4337" cy="255.9815" r="5"/>
 <circle cx="211.5784" cy="276.9031" r="5"/>
 <circle cx="260.3801" cy="203.1785" r="5"/>
 <circle cx="274.4949" cy="292.4264" r="5"/>
 <circle cx="202.3142" cy="234.9647" r="5"/>
 <circle cx="296.2128" cy="228.4506" r="5"/>
 <circle cx="230.1152" cy="298.0062" r="5"/>
 <circle cx="231.902"  cy="200.2761" r="5"/>
 <circle cx="297.767"  cy="274.8659" r="5"/>
 <circle cx="197.0941" cy="264.1761" r="5"/>
 <circle cx="279.9156" cy="203.042"  r="5"/>
 <circle cx="259.823"  cy="305.7091" r="5"/>
 <circle cx="204.4253" cy="215.0293" r="5"/>
 <circle cx="308.0876" cy="244.918"  r="5"/>
 <circle cx="210.0315" cy="293.6179" r="5"/>
 <circle cx="250"      cy="190"      r="5"/>
 <circle cx="291.0945" cy="294.8468" r="5"/>
 <circle cx="188.5904" cy="244.6274" r="5"/>
 <circle cx="299.5449" cy="211.9829" r="5"/>
 <circle cx="239.0175" cy="312.2847" r="5"/>
 <circle cx="215.596"  cy="195.9966" r="5"/>
 <circle cx="312.5991" cy="266.7734" r="5"/>
 <circle cx="191.8348" cy="280.2789" r="5"/>
 <circle cx="272.687"  cy="187.6678" r="5"/>
 <circle cx="275.6712" cy="311.9757" r="5"/>
 <circle cx="188.5312" cy="221.3366" r="5"/>
 <circle cx="315.3835" cy="229.3846" r="5"/>
 <circle cx="215.359"  cy="310"      r="5"/>
 <circle cx="234.8492" cy="181.6593" r="5"/>
 <circle cx="307.9228" cy="290.558"  r="5"/>
 <circle cx="179.1967" cy="259.3214" r="5"/>
 <circle cx="296.3521" cy="194.7597" r="5"/>
 <circle cx="253.1755" cy="322.7318" r="5"/>
 <circle cx="198.0385" cy="198.0385" r="5"/>
 <circle cx="324.0914" cy="253.2349" r="5"/>
 <circle cx="192.6745" cy="298.1018" r="5"/>
 <circle cx="259.8545" cy="175.1476" r="5"/>
 <circle cx="293.6823" cy="312.3848" r="5"/>
 <circle cx="175.0093" cy="233.375"  r="5"/>
 <circle cx="317.082"  cy="211.2702" r="5"/>
 <circle cx="226.5141" cy="324.4877" r="5"/>
 <circle cx="216.723"  cy="178.6373" r="5"/>
 <circle cx="323.3307" cy="280.3746" r="5"/>
 <circle cx="174.8246" cy="277.3616" r="5"/>
 <circle cx="287.2274" cy="178.4869" r="5"/>
 <circle cx="271.0266" cy="328.4722" r="5"/>
 <circle cx="180.9654" cy="206.0201" r="5"/>
 <circle cx="331.2093" cy="235.6806" r="5"/>
 <circle cx="199.4325" cy="315.9009" r="5"/>
 <circle cx="242.708"  cy="166.6524" r="5"/>
 <circle cx="312.1241" cy="306.9262" r="5"/>
 <circle cx="165.1472" cy="250"      r="5"/>
 <circle cx="312.993"  cy="192.2775" r="5"/>
 <circle cx="242.5026" cy="335.6959" r="5"/>
 <circle cx="197.2797" cy="181.2936" r="5"/>
 <circle cx="335.8535" cy="265.1383" r="5"/>
 <circle cx="175.9927" cy="297.1478" r="5"/>
 <circle cx="272.8583" cy="164.6917" r="5"/>
 <circle cx="291.0411" cy="328.8392" r="5"/>
 <circle cx="165.9513" cy="219.4088" r="5"/>
 <circle cx="333.1492" cy="215.5585" r="5"/>
 <circle cx="211.7303" cy="332.0697" r="5"/>
 <circle cx="222.6044" cy="163.1123" r="5"/>
 <circle cx="329.3725" cy="295.8258" r="5"/>
 <circle cx="159.99"   cy="269.9547" r="5"/>
 <circle cx="303.1913" cy="174.035"  r="5"/>
 <circle cx="262.1747" cy="342.4758" r="5"/>
 <circle cx="178.1387" cy="189.7012" r="5"/>
 <circle cx="344.25"   cy="245.885"  r="5"/>
 <circle cx="182.918"  cy="317.082"  r="5"/>
 <circle cx="254.161"  cy="154.6969" r="5"/>
 <circle cx="311.654"  cy="323.4764" r="5"/>
 <circle cx="154.3885" cy="237.4125" r="5"/>
 <circle cx="329.4197" cy="194.3897" r="5"/>
 <circle cx="228.9041" cy="345.1576" r="5"/>
 <circle cx="201.0102" cy="165.1472" r="5"/>
 <circle cx="343.9302" cy="279.6161" r="5"/>
 <circle cx="160.2801" cy="291.8371" r="5"/>
 <circle cx="288.0765" cy="158.0751" r="5"/>
 <circle cx="284.202"  cy="343.9693" r="5"/>
 <circle cx="160.8565" cy="203.5948" r="5"/>
 <circle cx="347.5537" cy="223.8606" r="5"/>
 <circle cx="195.47"   cy="335.5949" r="5"/>
 <circle cx="232.2913" cy="149.5689" r="5"/>
 <circle cx="331.2945" cy="312.3795" r="5"/>
 <circle cx="147.4355" cy="258.9732" r="5"/>
 <circle cx="319.8836" cy="173.7354" r="5"/>
 <circle cx="250"      cy="353.923"  r="5"/>
 <circle cx="179.4663" cy="173.026"  r="5"/>
 <circle cx="354.4818" cy="259.141"  r="5"/>
 <circle cx="166.415"  cy="314.137"  r="5"/>
 <circle cx="268.3772" cy="145.7777" r="5"/>
 <circle cx="307.1157" cy="339.6537" r="5"/>
 <circle cx="146.8673" cy="222.3657" r="5"/>
 <circle cx="345.1213" cy="200.483"  r="5"/>
 <circle cx="213.1633" cy="351.208"  r="5"/>
 <circle cx="208.6065" cy="150.0671" r="5"/>
 <circle cx="348.4502" cy="295.9081" r="5"/>
 <circle cx="145.9618" cy="282.8031" r="5"/>
 <circle cx="304.7723" cy="155.1317" r="5"/>
 <circle cx="273.8084" cy="357.3926" r="5"/>
 <circle cx="159.5217" cy="186.6464" r="5"/>
 <circle cx="359.9566" cy="235.5239" r="5"/>
 <circle cx="178.4222" cy="335.3031" r="5"/>
 <circle cx="245.1232" cy="138.303"  r="5"/>
 <circle cx="329.3725" cy="329.3725" r="5"/>
 <circle cx="137.413"  cy="245.0843" r="5"/>
 <circle cx="336.668"  cy="177.2769" r="5"/>
 <circle cx="235.1751" cy="362.6065" r="5"/>
 <circle cx="184.6022" cy="156.6023" r="5"/>
 <circle cx="361.7422" cy="274.7726" r="5"/>
 <circle cx="150.5013" cy="307.4456" r="5"/>
 <circle cx="284.6791" cy="140.012"  r="5"/>
 <circle cx="298.9216" cy="354.9127" r="5"/>
 <circle cx="142.6549" cy="205.5362" r="5"/>
 <circle cx="359.586"  cy="210.1139" r="5"/>
 <circle cx="195.9537" cy="353.822"  r="5"/>
 <circle cx="219.5956" cy="136.5294" r="5"/>
 <circle cx="349.4344" cy="313.3467" r="5"/>
 <circle cx="133.476"  cy="270.5463" r="5"/>
 <circle cx="322.2864" cy="155.7945" r="5"/>
 <circle cx="260.3858" cy="368.7103" r="5"/>
 <circle cx="161.8345" cy="169.2112" r="5"/>
 <circle cx="370"      cy="250"      r="5"/>
 <circle cx="161.2201" cy="331.3518" r="5"/>
 <circle cx="260.5311" cy="129.6293" r="5"/>
 <circle cx="323.8084" cy="346.189"  r="5"/>
 <circle cx="130.193"  cy="228.8748" r="5"/>
 <circle cx="352.949"  cy="184.4142" r="5"/>
 <circle cx="218.3013" cy="368.3013" r="5"/>
 <circle cx="193.2594" cy="141.0023" r="5"/>
 <circle cx="365.8531" cy="292.1671" r="5"/>
 <circle cx="135.7224" cy="297.3353" r="5"/>
 <circle cx="302.4455" cy="137.5302" r="5"/>
 <circle cx="287.4376" cy="368.7368" r="5"/>
 <circle cx="141.8335" cy="187.55"   r="5"/>
 <circle cx="372.3295" cy="222.8802" r="5"/>
 <circle cx="177.9026" cy="352.9658" r="5"/>
 <circle cx="233.5413" cy="124.9836" r="5"/>
 <circle cx="346.8978" cy="331.3069" r="5"/>
 <circle cx="123.235"  cy="255.5347" r="5"/>
 <circle cx="340"      cy="160"      r="5"/>
 <circle cx="244.431"  cy="377.5499" r="5"/>
 <circle cx="167.683"  cy="151.8984" r="5"/>
 <circle cx="377.3534" cy="266.7664" r="5"/>
 <circle cx="144.4596" cy="323.9002" r="5"/>
 <circle cx="277.9702" cy="123.8348" r="5"/>
 <circle cx="314.8074" cy="362.2497" r="5"/>
 <circle cx="126.0168" cy="210.9082" r="5"/>
 <circle cx="368.1681" cy="194.8973" r="5"/>
 <circle cx="199.9576" cy="370.8129" r="5"/>
 <circle cx="205.1445" cy="126.7605" r="5"/>
 <circle cx="366.6681" cy="310.7335" r="5"/>
 <circle cx="122.5856" cy="284.1406" r="5"/>
 <circle cx="321.0781" cy="138.4298" r="5"/>
 <circle cx="273.037"  cy="380.6495" r="5"/>
 <circle cx="144.4512" cy="169.0096" r="5"/>
 <circle cx="382.909"  cy="238.372"  r="5"/>
 <circle cx="159.6122" cy="348.641"  r="5"/>
 <circle cx="250"      cy="115.8359" r="5"/>
 <circle cx="340.8914" cy="349.1905" r="5"/>
 <circle cx="115.606"  cy="238.242"  r="5"/>
 <circle cx="357.3229" cy="167.6483" r="5"/>
 <circle cx="226.4452" cy="383.5858" r="5"/>
 <circle cx="176.9194" cy="135.2864" r="5"/>
 <circle cx="381.7347" cy="285.2982" r="5"/>
 <circle cx="128.7031" cy="313.1432" r="5"/>
 <circle cx="296.8954" cy="121.1558" r="5"/>
 <circle cx="302.6103" cy="377.0124" r="5"/>
 <circle cx="125.0741" cy="191.7461" r="5"/>
 <circle cx="381.8063" cy="208.4416" r="5"/>
 <circle cx="180.718"  cy="370"      r="5"/>
 <circle cx="219.9312" cy="114.3686" r="5"/>
 <circle cx="364.0947" cy="329.89"   r="5"/>
 <circle cx="111.5523" cy="268.227"  r="5"/>
 <circle cx="339.9903" cy="142.7538" r="5"/>
 <circle cx="256.1223" cy="390.2231" r="5"/>
 <circle cx="150.5013" cy="150.5013" r="5"/>
 <circle cx="390.9331" cy="256.1533" r="5"/>
 <circle cx="141.665"  cy="340.9039" r="5"/>
 <circle cx="268.5053" cy="109.4384" r="5"/>
 <circle cx="331.5205" cy="366.4234" r="5"/>
 <circle cx="110.8992" cy="219.1621" r="5"/>
 <circle cx="373.6932" cy="178.5857" r="5"/>
 <circle cx="206.9455" cy="386.5515" r="5"/>
 <circle cx="189.3429" cy="119.9204" r="5"/>
 <circle cx="382.9231" cy="305.0586" r="5"/>
 <circle cx="114.4756" cy="299.3268" r="5"/>
 <circle cx="316.7542" cy="121.7663" r="5"/>
 <circle cx="287.5064" cy="389.976"  r="5"/>
 <circle cx="127.4903" cy="171.9527" r="5"/>
 <circle cx="393.3902" cy="224.7164" r="5"/>
 <circle cx="161.1542" cy="365.7861" r="5"/>
 <circle cx="237.2502" cy="104.2693" r="5"/>
 <circle cx="358.1061" cy="349.061"  r="5"/>
 <circle cx="103.0306" cy="250"      r="5"/>
 <circle cx="358.6077" cy="150.4793" r="5"/>
 <circle cx="237.1316" cy="397.0864" r="5"/>
 <circle cx="159.9115" cy="132.5944" r="5"/>
 <circle cx="396.0706" cy="275.7562" r="5"/>
 <circle cx="124.6208" cy="329.8753" r="5"/>
 <circle cx="288.5632" cy="106.0803" r="5"/>
 <circle cx="318.9538" cy="382.459"  r="5"/>
 <circle cx="109.3597" cy="198.8111" r="5"/>
 <circle cx="388.5819" cy="192.5975" r="5"/>
 <circle cx="186.4665" cy="386.2479" r="5"/>
 <circle cx="204.6941" cy="106.3081" r="5"/>
 <circle cx="380.767"  cy="325.4983" r="5"/>
 <circle cx="102.2596" cy="282.7533" r="5"/>
 <circle cx="336.9872" cy="125.7694" r="5"/>
 <circle cx="269.8383" cy="400.6866" r="5"/>
 <circle cx="133.3196" cy="152.0935" r="5"/>
 <circle cx="402.4981" cy="243.3418" r="5"/>
 <circle cx="141.8335" cy="358.1665" r="5"/>
 <circle cx="256.6867" cy="96.84881" r="5"/>
 <circle cx="348.7469" cy="367.682"  r="5"/>
 <circle cx="97.369"   cy="229.9057" r="5"/>
 <circle cx="376.3726" cy="161.5129" r="5"/>
 <circle cx="216.5392" cy="400.9317" r="5"/>
 <circle cx="172.5403" cy="115.8359" r="5"/>
 <circle cx="398.0567" cy="296.6821" r="5"/>
 <circle cx="109.0116" cy="315.744"  r="5"/>
 <circle cx="309.6544" cy="105.9814" r="5"/>
 <circle cx="303.4253" cy="396.7847" r="5"/>
 <circle cx="111.1608" cy="177.7249" r="5"/>
 <circle cx="401.4995" cy="209.4058" r="5"/>
 <circle cx="165.5567" cy="382.5494" r="5"/>
 <circle cx="222.6539" cy="94.91232" r="5"/>
 <circle cx="375.189"  cy="346.0609" r="5"/>
 <circle cx="92.48779" cy="263.7805" r="5"/>
 <circle cx="357.0336" cy="133.1933" r="5"/>
 <circle cx="250"      cy="408.7451" r="5"/>
 <circle cx="142.5408" cy="132.7289" r="5"/>
 <circle cx="408.7673" cy="263.8903" r="5"/>
 <circle cx="123.3116" cy="347.2114" r="5"/>
 <circle cx="277.7837" cy="92.43076" r="5"/>
 <circle cx="336.1357" cy="385.2059" r="5"/>
 <circle cx="94.84934" cy="208.4275" r="5"/>
 <circle cx="392.7509" cy="175.6886" r="5"/>
 <circle cx="194.8509" cy="401.5209" r="5"/>
 <circle cx="188.1756" cy="100.7427" r="5"/>
 <circle cx="396.6987" cy="318.4067" r="5"/>
 <circle cx="95.3331"  cy="298.7663" r="5"/>
 <circle cx="331.2404" cy="109.2875" r="5"/>
 <circle cx="285.2338" cy="408.9295" r="5"/>
 <circle cx="116.4003" cy="156.4525" r="5"/>
 <circle cx="412.0034" cy="228.6718" r="5"/>
 <circle cx="144.7711" cy="375.4069" r="5"/>
 <circle cx="242.8459" cy="86.14391" r="5"/>
 <circle cx="366.1895" cy="366.1895" r="5"/>
 <circle cx="85.53591" cy="242.8193" r="5"/>
 <circle cx="376.3393" cy="143.9888" r="5"/>
 <circle cx="228.4335" cy="413.8136" r="5"/>
 <circle cx="155.0562" cy="114.4062" r="5"/>
 <circle cx="411.9004" cy="285.8924" r="5"/>
 <circle cx="106.1251" cy="333.0662" r="5"/>
 <circle cx="300.0474" cy="91.26986" r="5"/>
 <circle cx="320.4645" cy="401.1117" r="5"/>
 <circle cx="95.68169" cy="186.0793" r="5"/>
 <circle cx="407.2407" cy="192.7691" r="5"/>
 <circle cx="172.5968" cy="398.6901" r="5"/>
 <circle cx="206.5369" cy="87.79347" r="5"/>
 <circle cx="391.8804" cy="340.3878" r="5"/>
 <circle cx="84.03725" cy="279.2637" r="5"/>
 <circle cx="352.7708" cy="116.0665" r="5"/>
 <circle cx="264.7394" cy="418.4718" r="5"/>
 <circle cx="125.0973" cy="135.5478" r="5"/>
 <circle cx="419.7056" cy="250"      r="5"/>
 <circle cx="124.6629" cy="364.8503" r="5"/>
 <circle cx="264.8421" cy="80.35416" r="5"/>
 <circle cx="353.8469" cy="385.3359" r="5"/>
 <circle cx="81.71598" cy="220.327"  r="5"/>
 <circle cx="394.3654" cy="158.0291" r="5"/>
 <circle cx="205.6218" cy="415.6218" r="5"/>
 <circle cx="170.6921" cy="97.65089" r="5"/>
 <circle cx="411.6708" cy="308.8434" r="5"/>
 <circle cx="90.78148" cy="315.9505" r="5"/>
 <circle cx="322.9552" cy="93.54702" r="5"/>
 <circle cx="301.9969" cy="414.9131" r="5"/>
 <circle cx="100"      cy="163.3975" r="5"/>
 <circle cx="419.381"  cy="212.4491" r="5"/>
 <circle cx="150.323"  cy="392.3534" r="5"/>
 <circle cx="227.2794" cy="77.42023" r="5"/>
 <circle cx="383.5644" cy="362.0738" r="5"/>
 <circle cx="75.52373" cy="257.6178" r="5"/>
 <circle cx="373.6932" cy="126.3068" r="5"/>
 <circle cx="242.3573" cy="425.0474" r="5"/>
 <circle cx="137.1912" cy="115.5597" r="5"/>
 <circle cx="424.2801" cy="272.9444" r="5"/>
 <circle cx="105.7734" cy="350.9886" r="5"/>
 <circle cx="288.1695" cy="77.82832" r="5"/>
 <circle cx="338.3176" cy="402.9706" r="5"/>
 <circle cx="81.27025" cy="196.7997" r="5"/>
 <circle cx="410.5981" cy="175.1119" r="5"/>
 <circle cx="182.0804" cy="413.9724" r="5"/>
 <circle cx="189.2012" cy="82.95659" r="5"/>
 <circle cx="407.9278" cy="332.212"  r="5"/>
 <circle cx="77.75075" cy="296.154"  r="5"/>
 <circle cx="345.9648" cy="99.36547" r="5"/>
 <circle cx="281.0631" cy="426.1678" r="5"/>
 <circle cx="107.8591" cy="140.9314" r="5"/>
 <circle cx="428.7607" cy="234.3605" r="5"/>
 <circle cx="128.5816" cy="382.505"  r="5"/>
 <circle cx="250"      cy="70"       r="5"/>
 <circle cx="371.7938" cy="382.9146" r="5"/>
 <circle cx="70.13236" cy="234.2636" r="5"/>
 <circle cx="393.4632" cy="139.9168" r="5"/>
 <circle cx="218.551"  cy="428.3563" r="5"/>
 <circle cx="152.5427" cy="97.02265" r="5"/>
 <circle cx="425.4691" cy="297.0168" r="5"/>
 <circle cx="88.62252" cy="334.0078" r="5"/>
 <circle cx="312.319"  cy="78.77986" r="5"/>
 <circle cx="319.8332" cy="418.5922" r="5"/>
 <circle cx="84.36621" cy="172.7637" r="5"/>
 <circle cx="424.5589" cy="194.9618" r="5"/>
 <circle cx="158.3485" cy="408.7451" r="5"/>
 <circle cx="210.267"  cy="70.77588" r="5"/>
 <circle cx="400.5993" cy="355.4507" r="5"/>
 <circle cx="67.45564" cy="274.0324" r="5"/>
 <circle cx="368.5242" cy="108.7484" r="5"/>
 <circle cx="258.0548" cy="434.4861" r="5"/>
 <circle cx="119.233"  cy="119.233"  r="5"/>
 <circle cx="435.0263" cy="258.0784" r="5"/>
 <circle cx="107.9199" cy="369.2193" r="5"/>
 <circle cx="274.2442" cy="65.84729" r="5"/>
 <circle cx="356.6914" cy="402.3711" r="5"/>
 <circle cx="68.1362"  cy="209.6818" r="5"/>
 <circle cx="411.5549" cy="156.7262" r="5"/>
 <circle cx="193.8235" cy="428.169"  r="5"/>
 <circle cx="170.9354" cy="80.44534" r="5"/>
 <circle cx="423.0888" cy="321.6957" r="5"/>
 <circle cx="73.69804" cy="314.1687" r="5"/>
 <circle cx="336.7547" cy="83.34579" r="5"/>
 <circle cx="298.6965" cy="431.7379" r="5"/>
 <circle cx="91.09288" cy="148.765"  r="5"/>
 <circle cx="435.8132" cy="217.2361" r="5"/>
 <circle cx="134.9779" cy="399.8997" r="5"/>
 <circle cx="233.5094" cy="61.51112" r="5"/>
 <circle cx="389.6941" cy="378.0061" r="5"/>
 <circle cx="60.26334" cy="250"      r="5"/>
 <circle cx="390.0827" cy="121.6379" r="5"/>
 <circle cx="233.4175" cy="439.539"  r="5"/>
 <circle cx="134.0154" cy="98.84589" r="5"/>
 <circle cx="437.8893" cy="283.13"   r="5"/>
 <circle cx="88.87029" cy="352.6509" r="5"/>
 <circle cx="299.515"  cy="65.20751" r="5"/>
 <circle cx="338.4583" cy="419.9268" r="5"/>
 <circle cx="69.7357"  cy="184.3892" r="5"/>
 <circle cx="427.4715" cy="176.4889" r="5"/>
 <circle cx="168.7078" cy="424.3318" r="5"/>
 <circle cx="192.08"   cy="66.30114" r="5"/>
 <circle cx="417.0329" cy="346.4365" r="5"/>
 <circle cx="61.44592" cy="291.8014" r="5"/>
 <circle cx="360.9244" cy="91.58353" r="5"/>
 <circle cx="275.2763" cy="441.9925" r="5"/>
 <circle cx="101.4585" cy="125.3589" r="5"/>
 <circle cx="443.9801" cy="241.5306" r="5"/>
 <circle cx="112.5227" cy="387.4773" r="5"/>
 <circle cx="258.4918" cy="55.50607" r="5"/>
 <circle cx="375.3024" cy="399.3296" r="5"/>
 <circle cx="56.47768" cy="224.5223" r="5"/>
 <circle cx="410.1018" cy="137.8955" r="5"/>
 <circle cx="207.6419" cy="441.0649" r="5"/>
 <circle cx="152.0204" cy="80.29437" r="5"/>
 <circle cx="437.1328" cy="309.0027" r="5"/>
 <circle cx="71.93877" cy="333.0313" r="5"/>
 <circle cx="325.2827" cy="68.2515"  r="5"/>
 <circle cx="317.3702" cy="435.098"  r="5"/>
 <circle cx="75.05412" cy="158.9289" r="5"/>
 <circle cx="440.7551" cy="198.8873" r="5"/>
 <circle cx="143.7559" cy="416.7699" r="5"/>
 <circle cx="215.6194" cy="55.01801" r="5"/>
 <circle cx="407.2762" cy="370.6823" r="5"/>
 <circle cx="52.261"   cy="267.2999" r="5"/>
 <circle cx="384.2709" cy="103.469"  r="5"/>
 <circle cx="250"      cy="448.9975" r="5"/>
 <circle cx="115.3896" cy="103.0985" r="5"/>
 <circle cx="448.7402" cy="267.3875" r="5"/>
 <circle cx="91.52779" cy="371.6"    r="5"/>
 <circle cx="284.7296" cy="53.03845" r="5"/>
 <circle cx="357.5942" cy="418.889"  r="5"/>
 <circle cx="56.33247" cy="198.1069" r="5"/>
 <circle cx="428.0662" cy="157.3046" r="5"/>
 <circle cx="181.2548" cy="438.8759" r="5"/>
 <circle cx="172.9864" cy="64.07283" r="5"/>
 <circle cx="432.616"  cy="335.1552" r="5"/>
 <circle cx="57.59484" cy="310.6651" r="5"/>
 <circle cx="350.995"  cy="75.07144" r="5"/>
 <circle cx="293.7722" cy="447.4436" r="5"/>
 <circle cx="84.13435" cy="133.8596" r="5"/>
 <circle cx="450.997"  cy="223.5382" r="5"/>
 <circle cx="119.5284" cy="405.49"   r="5"/>
 <circle cx="241.1355" cy="46.96941" r="5"/>
 <circle cx="393.8749" cy="393.8749" r="5"/>
 <circle cx="46.4784"  cy="241.1141" r="5"/>
 <circle cx="406.243"  cy="118.8965" r="5"/>
 <circle cx="223.3458" cy="452.4588" r="5"/>
 <circle cx="132.732"  cy="82.52397" r="5"/>
 <circle cx="449.8428" cy="294.3041" r="5"/>
 <circle cx="72.51761" cy="352.4695" r="5"/>
 <circle cx="311.6997" cy="54.31364" r="5"/>
 <circle cx="336.8169" cy="436.1795" r="5"/>
 <circle cx="59.98603" cy="171.2936" r="5"/>
 <circle cx="443.4946" cy="179.5737" r="5"/>
 <circle cx="154.8081" cy="432.862"  r="5"/>
 <circle cx="196.5804" cy="50.63516" r="5"/>
 <circle cx="424.2782" cy="361.0275" r="5"/>
 <circle cx="46.26139" cy="285.9246" r="5"/>
 <circle cx="376.0886" cy="85.67816" r="5"/>
 <circle cx="268.073"  cy="456.5753" r="5"/>
 <circle cx="96.93725" cy="109.7438" r="5"/>
 <circle cx="457.8461" cy="250"      r="5"/>
 <circle cx="96.58252" cy="390.5812" r="5"/>
 <circle cx="268.1569" cy="42.46608" r="5"/>
 <circle cx="376.9673" cy="415.467"  r="5"/>
 <circle cx="44.3661"  cy="213.7412" r="5"/>
 <circle cx="426.3071" cy="137.68"   r="5"/>
 <circle cx="195.8332" cy="452.1533" r="5"/>
 <circle cx="153.2529" cy="64.15059" r="5"/>
 <circle cx="447.1116" cy="321.7428" r="5"/>
 <circle cx="55.9853"  cy="330.3635" r="5"/>
 <circle cx="338.8504" cy="59.4597"  r="5"/>
 <circle cx="313.2912" cy="450.7342" r="5"/>
 <circle cx="67.51712" cy="144.6435" r="5"/>
 <circle cx="455.9499" cy="204.342"  r="5"/>
 <circle cx="128.868"  cy="422.9944" r="5"/>
 <circle cx="222.4037" cy="40.38501" r="5"/>
 <circle cx="412.141"  cy="386.0525" r="5"/>
 <circle cx="38.30548" cy="259.2428" r="5"/>
 <circle cx="400"      cy="100"      r="5"/>
 <circle cx="240.7367" cy="462.1655" r="5"/>
 <circle cx="113.3415" cy="87.13672" r="5"/>
 <circle cx="461.0171" cy="277.7809" r="5"/>
 <circle cx="75.46102" cy="372.2135" r="5"/>
 <circle cx="296.1681" cy="41.74894" r="5"/>
 <circle cx="356.7708" cy="434.9324" r="5"/>
 <circle cx="46.1186"  cy="185.7164" r="5"/>
 <circle cx="443.9583" cy="159.5557" r="5"/>
 <circle cx="168.0128" cy="447.9346" r="5"/>
 <circle cx="176.6449" cy="48.45839" r="5"/>
 <circle cx="440.4493" cy="349.1416" r="5"/>
 <circle cx="42.38211" cy="305.631"  r="5"/>
 <circle cx="365.6131" cy="68.5238"  r="5"/>
 <circle cx="287.405"  cy="462.1341" r="5"/>
 <circle cx="78.92241" cy="118.7275" r="5"/>
 <circle cx="465.0489" cy="231.1857" r="5"/>
 <circle cx="104.0037" cy="409.327"  r="5"/>
 <circle cx="250"      cy="33.66692" r="5"/>
 <circle cx="396.3086" cy="409.6678" r="5"/>
 <circle cx="34.03014" cy="231.1051" r="5"/>
 <circle cx="422.1778" cy="117.8833" r="5"/>
 <circle cx="212.274"  cy="463.955"  r="5"/>
 <circle cx="133.1451" cy="66.57448" r="5"/>
 <circle cx="460.2969" cy="306.3489" r="5"/>
 <circle cx="56.68047" cy="350.6358" r="5"/>
 <circle cx="324.62"   cy="44.98327" r="5"/>
 <circle cx="333.5793" cy="451.7783" r="5"/>
 <circle cx="51.85202" cy="157.6021" r="5"/>
 <circle cx="458.7311" cy="184.1873" r="5"/>
 <circle cx="140.4555" cy="439.7367" r="5"/>
 <circle cx="202.5311" cy="35.88157" r="5"/>
 <circle cx="429.8407" cy="375.9258" r="5"/>
 <circle cx="32.10758" cy="278.6861" r="5"/>
 <circle cx="391.4133" cy="81.47022" r="5"/>
 <circle cx="259.6062" cy="470.0175" r="5"/>
 <circle cx="94.11543" cy="94.11543" r="5"/>
 <circle cx="470.4707" cy="259.626"  r="5"/>
 <circle cx="80.77525" cy="391.9964" r="5"/>
 <circle cx="278.8637" cy="30.75838" r="5"/>
 <circle cx="376.9666" cy="431.327"  r="5"/>
 <circle cx="33.66726" cy="202.0402" r="5"/>
 <circle cx="442.0937" cy="139.0946" r="5"/>
 <circle cx="183.2325" cy="461.7595" r="5"/>
 <circle cx="156.0684" cy="48.56303" r="5"/>
 <circle cx="455.5502" cy="335.1417" r="5"/>
 <circle cx="40.72052" cy="326.1715" r="5"/>
 <circle cx="352.9399" cy="52.25427" r="5"/>
 <circle cx="307.7578" cy="465.5552" r="5"/>
 <circle cx="61.60062" cy="129.9764" r="5"/>
 <circle cx="470.2097" cy="211.1711" r="5"/>
</svg>
